<svg id="SvgjsSvg1001" width="288" height="288" xmlns="http://www.w3.org/2000/svg" version="1.1" xmlns:xlink="http://www.w3.org/1999/xlink" xmlns:svgjs="http://svgjs.com/svgjs"><defs id="SvgjsDefs1002"></defs><g id="SvgjsG1008" transform="matrix(1,0,0,1,0,0)"><svg xmlns="http://www.w3.org/2000/svg" width="288" height="288" viewBox="-133 -19 629 629.334"><path d="M10.21875 72.792969v517.207031h22.484375v-517.207031c-3.671875.921875-7.449219 1.390625-11.242187 1.398437-3.796876.074219-7.578126-.398437-11.242188-1.398437zm0 0M97.632812 197.304688c1.328126 2.277343 7.691407 8.320312 25.722657 15.539062 2.210937.882812 4.503906 1.746094 6.886719 2.601562-.121094-1.730468-.210938-3.46875-.210938-5.230468 0-6.789063.972656-13.542969 2.878906-20.058594-21.953125.816406-32.71875 4.714844-35.277344 7.148438zm0 0M49.273438 28.351562c0 15.660157-12.695313 28.355469-28.355469 28.355469-15.660157 0-28.351563-12.695312-28.351563-28.355469 0-15.660156 12.691406-28.351562 28.351563-28.351562 15.660156 0 28.355469 12.691406 28.355469 28.351562zm0 0M157.554688 241.535156c8.6875 12.242188 22.078124 20.316406 36.964843 22.28125 14.882813 1.96875 29.914063-2.355468 41.480469-11.925781-16.378906-.523437-32.707031-2.058594-48.898438-4.601563-10.1875-1.605468-20.105468-3.550781-29.546874-5.753906zm0 0M201.589844 156.144531c-16.269532.003907-31.671875 7.332031-41.941406 19.953125-10.265626 12.621094-14.308594 29.191406-11 45.121094 13.546874 3.699219 27.296874 6.632812 41.175781 8.792969 19.847656 3.253906 39.941406 4.753906 60.054687 4.476562 8.441406-16.753906 7.585938-36.6875-2.257812-52.660156-9.839844-15.972656-27.269532-25.695313-46.03125-25.683594zm0 0" fill="#898dff" class="color000 svgShape"></path><path d="m208.148438 107.347656c-37.320313 27.933594-87.484376 31.582032-128.453126 9.34375l-29.5-16.199218v199.648437l37.855469 20.753906c34.90625 18.976563 77.675781 15.859375 109.457031-7.980469 37.375-27.933593 87.574219-31.582031 128.589844-9.34375l29.082032 15.832032.039062-199.65625-37.40625-20.375c-34.976562-18.976563-77.796875-15.863282-109.664062 7.976562zm96.976562 122.660156c-2.179688 13.84375-21.324219 19.804688-45.132812 21.476563-15.277344 21.65625-41.285157 33.085937-67.566407 29.699219-26.289062-3.386719-48.546875-21.035156-57.835937-45.863282-7.398438-2.261718-14.671875-4.90625-21.796875-7.917968-23.863281-10.222656-34.550781-20.964844-32.683594-32.832032 2.816406-17.882812 33.460937-22.011718 60.699219-22.058593 15.542968-25.085938 44.894531-38.046875 73.902344-32.640625 29.011718 5.410156 51.71875 28.078125 57.179687 57.074218 23.917969 10.144532 35.09375 21.253907 33.234375 33.0625zm0 0" fill="#898dff" class="color000 svgShape"></path><path d="m272.847656 216.640625c-.496094 5.542969-1.644531 11.011719-3.414062 16.285156 11.398437-1.703125 16.601562-4.308593 18.152344-5.679687-1.03125-1.753906-4.988282-5.667969-14.738282-10.605469zm0 0" fill="#898dff" class="color000 svgShape"></path></svg></g></svg>